<?xml version="1.0" encoding="UTF-8"?>
<!DOCTYPE svg PUBLIC "-//W3C//DTD SVG 1.1//EN" "http://www.w3.org/Graphics/SVG/1.1/DTD/svg11.dtd">
<svg xmlns="http://www.w3.org/2000/svg" version="1.1"
  width="5cm" height="5cm" viewBox="0 0 30 30">
  <rect x="0" y="0" width="30" height="30" style="fill: white;"/>
  <!-- orange tile at the center-->
  <polyline points="9.2,18 10.4,16.2 14.9,18.6 11.1,20.95 9.2,20.64 9.2,18" style="fill:#fd5e53;stroke:black; stroke-width:0.05"/>
  <polyline points="9.2,18 11.1,18.4 12.8,17.5" style="fill:none; stroke:black; stroke-width:0.05"/>
  <polyline points="10.4,16.2 11.1,18.4 11.1,20.95" style="fill:none; stroke:black; stroke-width:0.05"/>
  <!-- base -->
  <polyline points="9.6,15.8 0.3,19.2 22.6,22.8" style="fill:none;stroke:black; stroke-width:0.15"/>
  <polyline points="0,19.15 30,24" style="fill:none; stroke:black;stroke-width:0.15"/>
  <polyline points="-2,11.1 31,16.6" style="fill:none; stroke:black;stroke-width:0.15"/>
  <!-- seesaw tile -->
  <polygon points="0.9,11.1 12.7,8.1 31,16.6 22.6,22.8" style="fill:white;stroke:black; stroke-width:0.2"/>
  <!-- line -->
  <polyline points="7.1,9.5 8.6,9.2 27.6,19.1 33,20 32,20.7 26.7,19.8 7.1,9.5" style="fill:black;stroke:black;stroke-width:0.05"/>
  <polyline points="-2,14.9 -3,14 8.8,16 7.5,16.5 -2,14.9" style="fill:black;stroke:black;stroke-width:0.05"/>
</svg>