<?xml version="1.0" encoding="UTF-8"?>
<!DOCTYPE svg PUBLIC "-//W3C//DTD SVG 1.1//EN" "http://www.w3.org/Graphics/SVG/1.1/DTD/svg11.dtd">
<svg xmlns="http://www.w3.org/2000/svg" version="1.1"
  width="5cm" height="5cm" viewBox="0 0 30 30">
  <rect x="0" y="0" width="30" height="30" style="fill: white;"/>
  <polygon points="25,14.5 26.8,13.2 28.4,12.9 28.4,20.2 26.8,20.5 25.9,20 25.9,14.7 25.5,14.8" style="fill:#fd5e53;"/>
  <polyline points="25,14.5 25.5,14.8 25.5,14.2 26.8,13.2 26.8,14.4 25.5,14.8 25.9,14.7 25.9,20 26.8,20.5 26.8,13.2 28.4,12.9 28.4,20.2 26.8,20.5" style="fill:none;stroke:black;stroke-width:0.03"/>
  <polyline points="0,18.2 4,17.5 17.3,8.2 30,6" style="fill:none;stroke:black;stroke-width:0.2"/>
  <polyline points="0,26.5 12.5,23.6 26.8,13.2 30,12.6" style="fill:none;stroke:black;stroke-width:0.2"/>
  <polyline points="4,17.5 12.5,23.6" style="fill:none;stroke:black;stroke-width:0.05"/>
  <polyline points="17.3,8.25 26.8,13.16" style="fill:none;stroke:black;stroke-width:0.05"/>
  <polygon points="0,21.3 7.2,19.8 21.1,10.2 30,8.3 30,9.3 22.3,10.8 8.2,20.5 0,22.2" style="fill:black;"/>
</svg>